<svg xmlns="http://www.w3.org/2000/svg" viewBox="22.434981384277336 59.625 530.1300048828125 455.75"><rect height="100%" width="100%" x="22.434981384277336" y="59.625" fill="rgba(255, 255, 255, 1)"/> <svg xmlns="http://www.w3.org/2000/svg" id="Layer_1" dataName="Layer 1" viewBox="0.002777099609375 0 100.01611328125 148.1099853515625" height="202.9962158203125" width="137.07986306272022" y="129.625" x="218.95998474121095" preserveAspectRatio="xMinYMin" style="overflow: visible;"><polygon class="cls-1" points="14.28 44.17 40 50.48 40.77 63.97 15.13 59.08 14.28 44.17" style="fill: #13365c; fill-opacity: 1;"></polygon><polygon class="cls-2" points="83.25 61.1 83.89 72.21 70.58 69.67 69.9 57.82 83.25 61.1" style="fill: #14afd1;"></polygon><polygon class="cls-1" points="71.46 85.17 70.81 73.7 84.12 76.24 84.72 86.83 71.46 85.17" style="fill: #13365c; fill-opacity: 1;"></polygon><polygon class="cls-2" points="16.22 78.27 15.36 63.11 41 68 41.77 81.46 16.22 78.27" style="fill: #14afd1;"></polygon><polygon class="cls-2" points="45.38 81.91 44.63 68.7 67.18 73.01 67.85 84.72 45.38 81.91" style="fill: #14afd1;"></polygon><polygon class="cls-1" points="96.89 28.25 97.27 36.89 84.69 32.07 84.27 22.54 96.89 28.25" style="fill: #13365c; fill-opacity: 1;"></polygon><polygon class="cls-2" points="68.97 39.58 68.48 28.7 82.79 34.19 83.22 43.84 68.97 39.58" style="fill: #14afd1;"></polygon><polygon class="cls-2" points="65.23 9.48 64.81 0 77.39 4.82 77.76 13.22 65.23 9.48" style="fill: #14afd1;"></polygon><path class="cls-3" d="M345.62,404.68q-1.58,2.7-3.38,5.39a97.85,97.85,0,0,1-7.68,10l11.87-2.29Zm-18.85,23.23c-11.75,10.37-24.27,15.2-33.21,12.15,13.34-.52,31.81-14.11,46-35.17a117.65,117.65,0,0,0,8.83-15.5c.78-1.75,6.6-14.86,7.69-25.75,1.46,8.17-.24,18.8-4.86,29.91l1.63,26.56a3.11,3.11,0,0,1-2.51,3.25Z" transform="translate(-256.57 -309.75)" style="fill: #13365c;"></path><path class="cls-1" d="M312.27,430.72l-45.88,8.87a3.09,3.09,0,0,1-2.49-.59,3.12,3.12,0,0,1-1.21-2.26l-6.11-95.27a3.1,3.1,0,0,1,3.88-3.21L347,360.54a3.14,3.14,0,0,1,2.33,2.83L349.7,377a127.27,127.27,0,0,1-5.28,15.6c-.5-8.2-1-23-1.18-26.57l-80.18-20.65,5.62,87.45,53-10.26A104.17,104.17,0,0,1,312.27,430.72Z" transform="translate(-256.57 -309.75)" style="fill: #13365c; fill-opacity: 1;"></path><ellipse class="cls-4" cx="55.71" cy="142.65" rx="28.18" ry="5.46" style="fill: #13365c; fill-opacity: 1;"></ellipse></svg> <svg y="419.625" viewBox="-0.05999999865889549 8.199999809265137 390.1300048828125 25.75" x="92.43498138427734" height="25.75" width="390.1300048828125" xmlns="http://www.w3.org/2000/svg" style="overflow: visible;"><g fill="#13365c" fill-opacity="1" style=""><path d="M7.85 28.21L5.41 28.21L5.41 21.22L-0.06 10.08L2.54 10.08L4.83 15.14Q5.28 16.13 5.69 17.10Q6.11 18.07 6.57 19.09L6.57 19.09L6.69 19.09Q7.16 18.07 7.61 17.10Q8.07 16.13 8.48 15.14L8.48 15.14L10.77 10.08L13.29 10.08L7.85 21.22L7.85 28.21ZM20.75 28.54L20.75 28.54Q19.09 28.54 17.65 27.71Q16.22 26.88 15.35 25.31Q14.48 23.73 14.48 21.49L14.48 21.49Q14.48 19.26 15.35 17.67Q16.22 16.08 17.65 15.25Q19.09 14.42 20.75 14.42L20.75 14.42Q22.38 14.42 23.80 15.25Q25.22 16.08 26.11 17.67Q26.99 19.26 26.99 21.49L26.99 21.49Q26.99 23.73 26.11 25.31Q25.22 26.88 23.80 27.71Q22.38 28.54 20.75 28.54ZM20.75 26.55L20.75 26.55Q21.88 26.55 22.74 25.91Q23.59 25.28 24.05 24.14Q24.50 23.01 24.50 21.49L24.50 21.49Q24.50 19.97 24.05 18.83Q23.59 17.68 22.74 17.05Q21.88 16.41 20.75 16.41L20.75 16.41Q19.61 16.41 18.76 17.05Q17.90 17.68 17.43 18.83Q16.96 19.97 16.96 21.49L16.96 21.49Q16.96 23.01 17.43 24.14Q17.90 25.28 18.76 25.91Q19.61 26.55 20.75 26.55ZM34.39 28.54L34.39 28.54Q32.29 28.54 31.29 27.18Q30.28 25.83 30.28 23.26L30.28 23.26L30.28 14.75L32.68 14.75L32.68 22.96Q32.68 24.81 33.28 25.64Q33.87 26.47 35.17 26.47L35.17 26.47Q36.16 26.47 36.96 25.94Q37.76 25.42 38.68 24.26L38.68 24.26L38.68 14.75L41.08 14.75L41.08 28.21L39.09 28.21L38.90 26.11L38.81 26.11Q37.90 27.21 36.85 27.87Q35.80 28.54 34.39 28.54ZM47.96 28.21L45.55 28.21L45.55 14.75L47.52 14.75L47.74 17.21L47.79 17.21Q48.51 15.91 49.51 15.17Q50.50 14.42 51.63 14.42L51.63 14.42Q52.07 14.42 52.42 14.49Q52.77 14.56 53.07 14.70L53.07 14.70L52.63 16.80Q52.30 16.69 52.02 16.63Q51.74 16.58 51.33 16.58L51.33 16.58Q50.47 16.58 49.55 17.25Q48.62 17.93 47.96 19.64L47.96 19.64L47.96 28.21ZM63.26 28.54L63.26 28.54Q62.38 28.54 61.83 28.16Q61.27 27.79 61.03 27.10Q60.78 26.41 60.78 25.39L60.78 25.39L60.78 8.54L63.18 8.54L63.18 25.55Q63.18 26.08 63.37 26.31Q63.57 26.55 63.82 26.55L63.82 26.55Q63.93 26.55 64.02 26.53Q64.12 26.52 64.31 26.49L64.31 26.49L64.62 28.32Q64.40 28.40 64.06 28.47Q63.73 28.54 63.26 28.54ZM71.00 28.54L71.00 28.54Q69.87 28.54 68.97 28.08Q68.07 27.63 67.56 26.76Q67.05 25.89 67.05 24.70L67.05 24.70Q67.05 22.51 69.02 21.33Q71.00 20.14 75.25 19.70L75.25 19.70Q75.25 18.84 75.03 18.08Q74.81 17.32 74.20 16.85Q73.59 16.38 72.55 16.38L72.55 16.38Q71.38 16.38 70.38 16.84Q69.37 17.29 68.57 17.82L68.57 17.82L67.63 16.19Q68.26 15.77 69.09 15.36Q69.92 14.95 70.89 14.68Q71.85 14.42 72.93 14.42L72.93 14.42Q74.59 14.42 75.64 15.11Q76.69 15.80 77.17 17.05Q77.66 18.29 77.66 20.00L77.66 20.00L77.66 28.21L75.69 28.21L75.47 26.60L75.42 26.60Q74.45 27.40 73.35 27.97Q72.24 28.54 71.00 28.54ZM71.69 26.60L71.69 26.60Q72.66 26.60 73.48 26.16Q74.31 25.72 75.25 24.89L75.25 24.89L75.25 21.24Q73.07 21.52 71.79 21.96Q70.50 22.40 69.95 23.05Q69.40 23.70 69.40 24.53L69.40 24.53Q69.40 25.64 70.07 26.12Q70.75 26.60 71.69 26.60ZM85.42 28.54L85.42 28.54Q83.98 28.54 82.66 28.00Q81.33 27.46 80.39 26.66L80.39 26.66L81.55 25.11Q82.44 25.80 83.37 26.24Q84.31 26.69 85.47 26.69L85.47 26.69Q86.77 26.69 87.42 26.09Q88.07 25.50 88.07 24.67L88.07 24.67Q88.07 23.98 87.61 23.52Q87.16 23.07 86.45 22.75Q85.75 22.43 85.00 22.16L85.00 22.16Q84.06 21.82 83.15 21.35Q82.24 20.89 81.63 20.14Q81.03 19.39 81.03 18.26L81.03 18.26Q81.03 16.63 82.27 15.53Q83.51 14.42 85.69 14.42L85.69 14.42Q86.99 14.42 88.07 14.88Q89.15 15.33 89.92 15.94L89.92 15.94L88.79 17.49Q88.10 16.96 87.37 16.62Q86.63 16.27 85.75 16.27L85.75 16.27Q84.51 16.27 83.91 16.84Q83.32 17.40 83.32 18.15L83.32 18.15Q83.32 18.79 83.75 19.19Q84.18 19.59 84.85 19.88Q85.53 20.17 86.30 20.44L86.30 20.44Q87.24 20.80 88.18 21.26Q89.12 21.71 89.74 22.47Q90.36 23.23 90.36 24.50L90.36 24.50Q90.36 25.61 89.80 26.52Q89.23 27.43 88.13 27.98Q87.02 28.54 85.42 28.54ZM97.77 28.54L97.77 28.54Q95.61 28.54 94.76 27.28Q93.90 26.02 93.90 24.01L93.90 24.01L93.90 16.71L91.91 16.71L91.91 14.89L94.01 14.75L94.29 11.00L96.28 11.00L96.28 14.75L99.89 14.75L99.89 16.71L96.28 16.71L96.28 24.03Q96.28 25.25 96.75 25.93Q97.21 26.60 98.35 26.60L98.35 26.60Q98.71 26.60 99.12 26.49Q99.54 26.38 99.87 26.24L99.87 26.24L100.31 28.04Q99.76 28.23 99.09 28.39Q98.43 28.54 97.77 28.54ZM113.76 28.54L113.76 28.54Q111.97 28.54 110.54 27.71Q109.12 26.88 108.28 25.31Q107.44 23.73 107.44 21.49L107.44 21.49Q107.44 19.26 108.35 17.67Q109.26 16.08 110.74 15.25Q112.22 14.42 113.96 14.42L113.96 14.42Q115.28 14.42 116.24 14.89Q117.19 15.36 117.88 16.00L117.88 16.00L116.66 17.57Q116.08 17.05 115.46 16.73Q114.84 16.41 114.07 16.41L114.07 16.41Q112.85 16.41 111.93 17.05Q111.00 17.68 110.46 18.83Q109.92 19.97 109.92 21.49L109.92 21.49Q109.92 23.01 110.43 24.14Q110.94 25.28 111.87 25.91Q112.80 26.55 113.98 26.55L113.98 26.55Q114.90 26.55 115.70 26.16Q116.50 25.77 117.11 25.22L117.11 25.22L118.13 26.82Q117.22 27.65 116.10 28.10Q114.98 28.54 113.76 28.54ZM124.15 28.54L124.15 28.54Q123.02 28.54 122.12 28.08Q121.22 27.63 120.71 26.76Q120.20 25.89 120.20 24.70L120.20 24.70Q120.20 22.51 122.17 21.33Q124.15 20.14 128.40 19.70L128.40 19.70Q128.40 18.84 128.18 18.08Q127.96 17.32 127.35 16.85Q126.75 16.38 125.70 16.38L125.70 16.38Q124.54 16.38 123.53 16.84Q122.52 17.29 121.72 17.82L121.72 17.82L120.78 16.19Q121.41 15.77 122.24 15.36Q123.07 14.95 124.04 14.68Q125.01 14.42 126.08 14.42L126.08 14.42Q127.74 14.42 128.79 15.11Q129.84 15.80 130.32 17.05Q130.81 18.29 130.81 20.00L130.81 20.00L130.81 28.21L128.85 28.21L128.63 26.60L128.57 26.60Q127.60 27.40 126.50 27.97Q125.39 28.54 124.15 28.54ZM124.84 26.60L124.84 26.60Q125.81 26.60 126.64 26.16Q127.46 25.72 128.40 24.89L128.40 24.89L128.40 21.24Q126.22 21.52 124.94 21.96Q123.65 22.40 123.10 23.05Q122.55 23.70 122.55 24.53L122.55 24.53Q122.55 25.64 123.22 26.12Q123.90 26.60 124.84 26.60ZM137.49 28.54L137.49 28.54Q136.61 28.54 136.06 28.16Q135.50 27.79 135.26 27.10Q135.01 26.41 135.01 25.39L135.01 25.39L135.01 8.54L137.41 8.54L137.41 25.55Q137.41 26.08 137.60 26.31Q137.80 26.55 138.05 26.55L138.05 26.55Q138.16 26.55 138.25 26.53Q138.35 26.52 138.54 26.49L138.54 26.49L138.85 28.32Q138.63 28.40 138.29 28.47Q137.96 28.54 137.49 28.54ZM144.59 28.54L144.59 28.54Q143.71 28.54 143.16 28.16Q142.60 27.79 142.36 27.10Q142.11 26.41 142.11 25.39L142.11 25.39L142.11 8.54L144.51 8.54L144.51 25.55Q144.51 26.08 144.70 26.31Q144.90 26.55 145.15 26.55L145.15 26.55Q145.26 26.55 145.35 26.53Q145.45 26.52 145.64 26.49L145.64 26.49L145.95 28.32Q145.73 28.40 145.39 28.47Q145.06 28.54 144.59 28.54ZM150.45 28.54L150.45 28.54Q149.76 28.54 149.26 28.04Q148.76 27.54 148.76 26.77L148.76 26.77Q148.76 25.94 149.26 25.44Q149.76 24.95 150.45 24.95L150.45 24.95Q151.17 24.95 151.67 25.44Q152.16 25.94 152.16 26.77L152.16 26.77Q152.16 27.54 151.67 28.04Q151.17 28.54 150.45 28.54ZM162.02 28.21L159.54 28.21L165.64 10.08L168.41 10.08L174.51 28.21L171.91 28.21L168.82 18.15Q168.35 16.63 167.91 15.13Q167.47 13.62 167.02 12.07L167.02 12.07L166.91 12.07Q166.50 13.62 166.07 15.13Q165.64 16.63 165.15 18.15L165.15 18.15L162.02 28.21ZM171.17 22.76L162.80 22.76L162.80 20.83L171.17 20.83L171.17 22.76ZM179.21 28.21L176.80 28.21L176.80 14.75L178.77 14.75L178.99 16.69L179.04 16.69Q180.01 15.72 181.09 15.07Q182.16 14.42 183.55 14.42L183.55 14.42Q185.70 14.42 186.68 15.77Q187.66 17.13 187.66 19.70L187.66 19.70L187.66 28.21L185.26 28.21L185.26 20.00Q185.26 18.15 184.68 17.32Q184.10 16.49 182.80 16.49L182.80 16.49Q181.78 16.49 180.99 17.00Q180.20 17.51 179.21 18.51L179.21 18.51L179.21 28.21ZM196.53 28.54L196.53 28.54Q194.02 28.54 192.51 26.69Q191.00 24.84 191.00 21.49L191.00 21.49Q191.00 19.31 191.82 17.74Q192.63 16.16 193.96 15.29Q195.29 14.42 196.81 14.42L196.81 14.42Q197.99 14.42 198.84 14.83Q199.68 15.25 200.53 15.97L200.53 15.97L200.42 13.67L200.42 8.54L202.83 8.54L202.83 28.21L200.87 28.21L200.65 26.63L200.59 26.63Q199.82 27.40 198.77 27.97Q197.72 28.54 196.53 28.54ZM197.08 26.52L197.08 26.52Q197.99 26.52 198.81 26.08Q199.62 25.64 200.42 24.72L200.42 24.72L200.42 17.79Q199.60 17.05 198.82 16.74Q198.05 16.44 197.22 16.44L197.22 16.44Q196.20 16.44 195.34 17.06Q194.48 17.68 193.97 18.83Q193.46 19.97 193.46 21.47L193.46 21.47Q193.46 23.87 194.42 25.19Q195.37 26.52 197.08 26.52ZM213.13 33.95L213.13 33.95Q212.66 33.95 212.28 33.87Q211.89 33.79 211.53 33.68L211.53 33.68L212.00 31.80Q212.22 31.85 212.50 31.92Q212.77 31.99 213.02 31.99L213.02 31.99Q214.15 31.99 214.89 31.19Q215.62 30.39 216.01 29.17L216.01 29.17L216.31 28.21L210.92 14.75L213.38 14.75L216.06 22.07Q216.39 22.96 216.72 23.94Q217.06 24.92 217.36 25.89L217.36 25.89L217.47 25.89Q217.77 24.95 218.05 23.97Q218.33 22.98 218.60 22.07L218.60 22.07L220.92 14.75L223.27 14.75L218.24 29.26Q217.75 30.61 217.08 31.67Q216.42 32.74 215.47 33.34Q214.51 33.95 213.13 33.95ZM231.12 28.54L231.12 28.54Q229.46 28.54 228.02 27.71Q226.59 26.88 225.72 25.31Q224.85 23.73 224.85 21.49L224.85 21.49Q224.85 19.26 225.72 17.67Q226.59 16.08 228.02 15.25Q229.46 14.42 231.12 14.42L231.12 14.42Q232.75 14.42 234.17 15.25Q235.59 16.08 236.48 17.67Q237.36 19.26 237.36 21.49L237.36 21.49Q237.36 23.73 236.48 25.31Q235.59 26.88 234.17 27.71Q232.75 28.54 231.12 28.54ZM231.12 26.55L231.12 26.55Q232.25 26.55 233.11 25.91Q233.96 25.28 234.42 24.14Q234.87 23.01 234.87 21.49L234.87 21.49Q234.87 19.97 234.42 18.83Q233.96 17.68 233.11 17.05Q232.25 16.41 231.12 16.41L231.12 16.41Q229.98 16.41 229.13 17.05Q228.27 17.68 227.80 18.83Q227.33 19.97 227.33 21.49L227.33 21.49Q227.33 23.01 227.80 24.14Q228.27 25.28 229.13 25.91Q229.98 26.55 231.12 26.55ZM244.76 28.54L244.76 28.54Q242.66 28.54 241.66 27.18Q240.65 25.83 240.65 23.26L240.65 23.26L240.65 14.75L243.05 14.75L243.05 22.96Q243.05 24.81 243.64 25.64Q244.24 26.47 245.54 26.47L245.54 26.47Q246.53 26.47 247.33 25.94Q248.13 25.42 249.05 24.26L249.05 24.26L249.05 14.75L251.45 14.75L251.45 28.21L249.46 28.21L249.27 26.11L249.18 26.11Q248.27 27.21 247.22 27.87Q246.17 28.54 244.76 28.54ZM258.33 28.21L255.92 28.21L255.92 14.75L257.89 14.75L258.11 17.21L258.16 17.21Q258.88 15.91 259.87 15.17Q260.87 14.42 262.00 14.42L262.00 14.42Q262.44 14.42 262.79 14.49Q263.13 14.56 263.44 14.70L263.44 14.70L263.00 16.80Q262.67 16.69 262.39 16.63Q262.11 16.58 261.70 16.58L261.70 16.58Q260.84 16.58 259.92 17.25Q258.99 17.93 258.33 19.64L258.33 19.64L258.33 28.21ZM273.94 28.21L271.53 28.21L271.53 12.74Q271.53 11.35 271.96 10.35Q272.39 9.34 273.27 8.77Q274.16 8.20 275.54 8.20L275.54 8.20Q276.17 8.20 276.77 8.34Q277.36 8.48 277.80 8.67L277.80 8.67L277.31 10.50Q276.95 10.30 276.56 10.24Q276.17 10.17 275.81 10.17L275.81 10.17Q274.88 10.17 274.41 10.82Q273.94 11.46 273.94 12.74L273.94 12.74L273.94 28.21ZM276.75 16.71L269.71 16.71L269.71 14.89L271.64 14.75L276.75 14.75L276.75 16.71ZM281.70 28.21L279.30 28.21L279.30 14.75L281.70 14.75L281.70 28.21ZM280.51 12.04L280.51 12.04Q279.85 12.04 279.41 11.62Q278.96 11.19 278.96 10.50L278.96 10.50Q278.96 9.83 279.41 9.41Q279.85 8.98 280.51 8.98L280.51 8.98Q281.20 8.98 281.63 9.41Q282.06 9.83 282.06 10.50L282.06 10.50Q282.06 11.19 281.63 11.62Q281.20 12.04 280.51 12.04ZM288.55 28.21L286.15 28.21L286.15 14.75L288.11 14.75L288.33 17.21L288.38 17.21Q289.10 15.91 290.10 15.17Q291.09 14.42 292.22 14.42L292.22 14.42Q292.67 14.42 293.01 14.49Q293.36 14.56 293.66 14.70L293.66 14.70L293.22 16.80Q292.89 16.69 292.61 16.63Q292.34 16.58 291.92 16.58L291.92 16.58Q291.06 16.58 290.14 17.25Q289.21 17.93 288.55 19.64L288.55 19.64L288.55 28.21ZM299.41 28.54L299.41 28.54Q297.97 28.54 296.64 28.00Q295.32 27.46 294.38 26.66L294.38 26.66L295.54 25.11Q296.42 25.80 297.36 26.24Q298.30 26.69 299.46 26.69L299.46 26.69Q300.76 26.69 301.41 26.09Q302.06 25.50 302.06 24.67L302.06 24.67Q302.06 23.98 301.60 23.52Q301.15 23.07 300.44 22.75Q299.74 22.43 298.99 22.16L298.99 22.16Q298.05 21.82 297.14 21.35Q296.23 20.89 295.62 20.14Q295.01 19.39 295.01 18.26L295.01 18.26Q295.01 16.63 296.26 15.53Q297.50 14.42 299.68 14.42L299.68 14.42Q300.98 14.42 302.06 14.88Q303.14 15.33 303.91 15.94L303.91 15.94L302.78 17.49Q302.09 16.96 301.35 16.62Q300.62 16.27 299.74 16.27L299.74 16.27Q298.50 16.27 297.90 16.84Q297.31 17.40 297.31 18.15L297.31 18.15Q297.31 18.79 297.74 19.19Q298.16 19.59 298.84 19.88Q299.52 20.17 300.29 20.44L300.29 20.44Q301.23 20.80 302.17 21.26Q303.11 21.71 303.73 22.47Q304.35 23.23 304.35 24.50L304.35 24.50Q304.35 25.61 303.79 26.52Q303.22 27.43 302.11 27.98Q301.01 28.54 299.41 28.54ZM311.76 28.54L311.76 28.54Q309.60 28.54 308.74 27.28Q307.89 26.02 307.89 24.01L307.89 24.01L307.89 16.71L305.90 16.71L305.90 14.89L308.00 14.75L308.28 11.00L310.26 11.00L310.26 14.75L313.88 14.75L313.88 16.71L310.26 16.71L310.26 24.03Q310.26 25.25 310.73 25.93Q311.20 26.60 312.34 26.60L312.34 26.60Q312.70 26.60 313.11 26.49Q313.52 26.38 313.86 26.24L313.86 26.24L314.30 28.04Q313.75 28.23 313.08 28.39Q312.42 28.54 311.76 28.54ZM324.82 28.21L322.42 28.21L322.42 14.75L324.38 14.75L324.60 16.69L324.66 16.69Q325.54 15.75 326.59 15.08Q327.64 14.42 328.86 14.42L328.86 14.42Q330.38 14.42 331.26 15.11Q332.14 15.80 332.56 16.96L332.56 16.96Q333.61 15.83 334.69 15.13Q335.76 14.42 336.98 14.42L336.98 14.42Q339.08 14.42 340.07 15.77Q341.07 17.13 341.07 19.70L341.07 19.70L341.07 28.21L338.69 28.21L338.69 20.00Q338.69 18.15 338.10 17.32Q337.50 16.49 336.23 16.49L336.23 16.49Q335.49 16.49 334.67 16.99Q333.86 17.49 332.94 18.51L332.94 18.51L332.94 28.21L330.54 28.21L330.54 20.00Q330.54 18.15 329.96 17.32Q329.38 16.49 328.11 16.49L328.11 16.49Q326.62 16.49 324.82 18.51L324.82 18.51L324.82 28.21ZM350.65 28.54L350.65 28.54Q349.00 28.54 347.56 27.71Q346.12 26.88 345.25 25.31Q344.38 23.73 344.38 21.49L344.38 21.49Q344.38 19.26 345.25 17.67Q346.12 16.08 347.56 15.25Q349.00 14.42 350.65 14.42L350.65 14.42Q352.28 14.42 353.71 15.25Q355.13 16.08 356.01 17.67Q356.90 19.26 356.90 21.49L356.90 21.49Q356.90 23.73 356.01 25.31Q355.13 26.88 353.71 27.71Q352.28 28.54 350.65 28.54ZM350.65 26.55L350.65 26.55Q351.79 26.55 352.64 25.91Q353.50 25.28 353.95 24.14Q354.41 23.01 354.41 21.49L354.41 21.49Q354.41 19.97 353.95 18.83Q353.50 17.68 352.64 17.05Q351.79 16.41 350.65 16.41L350.65 16.41Q349.52 16.41 348.66 17.05Q347.81 17.68 347.34 18.83Q346.87 19.97 346.87 21.49L346.87 21.49Q346.87 23.01 347.34 24.14Q347.81 25.28 348.66 25.91Q349.52 26.55 350.65 26.55ZM366.10 28.21L363.31 28.21L358.47 14.75L360.93 14.75L363.42 22.29Q363.72 23.29 364.04 24.30Q364.36 25.31 364.66 26.27L364.66 26.27L364.77 26.27Q365.05 25.31 365.36 24.30Q365.68 23.29 365.99 22.29L365.99 22.29L368.47 14.75L370.82 14.75L366.10 28.21ZM378.86 28.54L378.86 28.54Q377.06 28.54 375.60 27.69Q374.13 26.85 373.26 25.28Q372.39 23.70 372.39 21.49L372.39 21.49Q372.39 19.31 373.26 17.72Q374.13 16.13 375.53 15.28Q376.92 14.42 378.47 14.42L378.47 14.42Q380.18 14.42 381.40 15.21Q382.62 16.00 383.24 17.42Q383.86 18.84 383.86 20.75L383.86 20.75Q383.86 21.11 383.83 21.47Q383.80 21.82 383.75 22.07L383.75 22.07L374.27 22.07L374.25 20.36L381.76 20.36Q381.76 18.40 380.92 17.36Q380.07 16.33 378.50 16.33L378.50 16.33Q377.56 16.33 376.68 16.87Q375.79 17.40 375.23 18.55Q374.66 19.70 374.66 21.49L374.66 21.49Q374.66 23.23 375.28 24.37Q375.90 25.50 376.92 26.06Q377.95 26.63 379.16 26.63L379.16 26.63Q380.13 26.63 380.93 26.34Q381.73 26.05 382.48 25.58L382.48 25.58L383.33 27.13Q382.45 27.71 381.33 28.12Q380.21 28.54 378.86 28.54ZM388.36 28.54L388.36 28.54Q387.67 28.54 387.17 28.04Q386.68 27.54 386.68 26.77L386.68 26.77Q386.68 25.94 387.17 25.44Q387.67 24.95 388.36 24.95L388.36 24.95Q389.08 24.95 389.58 25.44Q390.07 25.94 390.07 26.77L390.07 26.77Q390.07 27.54 389.58 28.04Q389.08 28.54 388.36 28.54Z" transform="translate(0, 0)"></path></g></svg> <svg y="362.625" viewBox="4.71999979019165 10.170000076293945 202.24000549316406 43.459999084472656" x="186.37998138427736" height="43.459999084472656" width="202.24000549316406" xmlns="http://www.w3.org/2000/svg" style="overflow: visible;"><g fill="#13365c" fill-opacity="1" style=""><path d="M4.72 12.40L10.11 12.40L10.11 53.07L4.72 53.07L4.72 12.40ZM28.18 12.40L34.67 12.40L17.77 31.37L8.27 41.23L7.37 35.48L14.53 27.60L28.18 12.40ZM35.89 53.07L29.47 53.07L14.41 33.24L17.63 28.97L35.89 53.07ZM44.86 22.85L45.00 27.60L45.00 53.07L39.83 53.07L39.83 22.85L44.86 22.85ZM54.44 22.68L54.44 22.68L54.41 27.49Q53.77 27.35 53.20 27.31Q52.63 27.26 51.90 27.26L51.90 27.26Q50.11 27.26 48.74 27.82Q47.38 28.38 46.43 29.39Q45.48 30.39 44.93 31.77Q44.39 33.16 44.22 34.81L44.22 34.81L42.77 35.64Q42.77 32.91 43.31 30.50Q43.86 28.10 45.00 26.24Q46.15 24.39 47.92 23.34Q49.69 22.29 52.15 22.29L52.15 22.29Q52.71 22.29 53.44 22.42Q54.16 22.54 54.44 22.68ZM59.64 22.85L64.83 22.85L64.83 53.07L59.64 53.07L59.64 22.85ZM59.25 14.83L59.25 14.83Q59.25 13.58 60.02 12.71Q60.78 11.84 62.29 11.84L62.29 11.84Q63.77 11.84 64.57 12.71Q65.36 13.58 65.36 14.83L65.36 14.83Q65.36 16.03 64.57 16.89Q63.77 17.74 62.29 17.74L62.29 17.74Q60.78 17.74 60.02 16.89Q59.25 16.03 59.25 14.83ZM69.44 22.85L85.78 22.85L85.78 26.82L69.44 26.82L69.44 22.85ZM74.97 45.56L74.97 15.50L80.14 15.50L80.14 45.59Q80.14 47.12 80.62 47.91Q81.09 48.69 81.85 48.94Q82.60 49.19 83.47 49.19L83.47 49.19Q84.11 49.19 84.82 49.07Q85.53 48.94 85.90 48.86L85.90 48.86L85.92 53.07Q85.31 53.27 84.32 53.45Q83.33 53.63 81.93 53.63L81.93 53.63Q80.03 53.63 78.44 52.88Q76.85 52.12 75.91 50.35Q74.97 48.58 74.97 45.56L74.97 45.56ZM92.26 22.85L97.46 22.85L97.46 53.07L92.26 53.07L92.26 22.85ZM91.87 14.83L91.87 14.83Q91.87 13.58 92.64 12.71Q93.41 11.84 94.92 11.84L94.92 11.84Q96.40 11.84 97.19 12.71Q97.99 13.58 97.99 14.83L97.99 14.83Q97.99 16.03 97.19 16.89Q96.40 17.74 94.92 17.74L94.92 17.74Q93.41 17.74 92.64 16.89Q91.87 16.03 91.87 14.83ZM117.85 49.39L117.85 49.39Q119.70 49.39 121.26 48.63Q122.82 47.88 123.83 46.55Q124.84 45.22 124.97 43.52L124.97 43.52L129.89 43.52Q129.75 46.20 128.09 48.51Q126.43 50.81 123.75 52.22Q121.06 53.63 117.85 53.63L117.85 53.63Q114.44 53.63 111.92 52.43Q109.39 51.23 107.73 49.14Q106.06 47.04 105.24 44.32Q104.42 41.59 104.42 38.55L104.42 38.55L104.42 37.38Q104.42 34.33 105.24 31.61Q106.06 28.88 107.73 26.79Q109.39 24.69 111.92 23.49Q114.44 22.29 117.85 22.29L117.85 22.29Q121.40 22.29 124.05 23.73Q126.71 25.17 128.23 27.64Q129.75 30.11 129.89 33.24L129.89 33.24L124.97 33.24Q124.84 31.37 123.93 29.86Q123.02 28.35 121.47 27.44Q119.92 26.54 117.85 26.54L117.85 26.54Q115.48 26.54 113.87 27.47Q112.26 28.41 111.33 29.99Q110.39 31.56 109.99 33.48Q109.58 35.39 109.58 37.38L109.58 37.38L109.58 38.55Q109.58 40.53 109.97 42.46Q110.37 44.39 111.30 45.95Q112.24 47.51 113.84 48.45Q115.45 49.39 117.85 49.39ZM153.52 47.91L153.52 47.91L153.52 32.35Q153.52 30.56 152.81 29.23Q152.10 27.91 150.67 27.18Q149.25 26.45 147.15 26.45L147.15 26.45Q145.20 26.45 143.73 27.12Q142.27 27.79 141.44 28.88Q140.62 29.97 140.62 31.23L140.62 31.23L135.45 31.23Q135.45 29.61 136.29 28.02Q137.13 26.43 138.70 25.13Q140.28 23.83 142.50 23.06Q144.72 22.29 147.46 22.29L147.46 22.29Q150.76 22.29 153.29 23.41Q155.81 24.53 157.25 26.77Q158.69 29.02 158.69 32.40L158.69 32.40L158.69 46.48Q158.69 47.99 158.96 49.69Q159.22 51.40 159.75 52.63L159.75 52.63L159.75 53.07L154.36 53.07Q153.97 52.18 153.75 50.69Q153.52 49.19 153.52 47.91ZM148.41 34.75L154.42 34.75L154.47 38.38L149.25 38.38Q147.04 38.38 145.31 38.73Q143.58 39.08 142.41 39.78Q141.23 40.48 140.62 41.52Q140.00 42.57 140.00 43.97L140.00 43.97Q140.00 45.39 140.65 46.57Q141.29 47.74 142.59 48.42Q143.89 49.11 145.79 49.11L145.79 49.11Q148.16 49.11 149.98 48.10Q151.79 47.10 152.87 45.64Q153.94 44.19 154.03 42.82L154.03 42.82L156.23 45.31Q156.04 46.48 155.17 47.91Q154.30 49.33 152.87 50.63Q151.43 51.93 149.46 52.78Q147.49 53.63 145.03 53.63L145.03 53.63Q141.96 53.63 139.65 52.43Q137.35 51.23 136.08 49.20Q134.81 47.18 134.81 44.67L134.81 44.67Q134.81 42.24 135.76 40.38Q136.71 38.52 138.49 37.28Q140.28 36.03 142.80 35.39Q145.31 34.75 148.41 34.75L148.41 34.75ZM167.24 10.17L172.43 10.17L172.43 53.07L167.24 53.07L167.24 10.17ZM206.96 27.40L204.45 27.40L204.45 16.37L200.56 27.40L199.11 27.40L195.20 16.40L195.20 27.40L192.69 27.40L192.69 12.40L195.81 12.40L199.84 23.52L203.83 12.40L206.96 12.40L206.96 27.40ZM179.70 12.40L190.48 12.40L190.48 14.67L186.34 14.67L186.34 27.40L183.80 27.40L183.80 14.67L179.70 14.67L179.70 12.40Z" transform="translate(0, 0)"></path></g></svg></svg>